<?xml version="1.0" encoding="utf-8"?>
<!-- Generator: Adobe Illustrator 22.1.0, SVG Export Plug-In . SVG Version: 6.00 Build 0)  -->
<svg version="1.1" id="Layer_1" xmlns="http://www.w3.org/2000/svg" xmlns:xlink="http://www.w3.org/1999/xlink" x="0px" y="0px"
	 viewBox="0 0 161.6 38.9" style="enable-background:new 0 0 161.6 38.9;" xml:space="preserve">
<style type="text/css">
	.st0{fill:#6D6E70;}
	.st1{clip-path:url(#SVGID_2_);fill-rule:evenodd;clip-rule:evenodd;fill:#2E3191;}
	.st2{fill-rule:evenodd;clip-rule:evenodd;fill:#2E3191;}
</style>
<g>
	<path class="st0" d="M124.3,18H121l0.2-1c0.1-0.5,0.1-0.8,0-0.9c-0.1-0.1-0.2-0.2-0.4-0.2c-0.2,0-0.4,0.1-0.5,0.3
		c-0.1,0.2-0.2,0.4-0.3,0.8c-0.1,0.4-0.1,0.8,0,1c0.1,0.2,0.3,0.5,0.8,0.8c1.4,0.9,2.2,1.7,2.5,2.3c0.3,0.6,0.3,1.5,0.1,2.8
		c-0.2,1-0.4,1.7-0.7,2.1c-0.3,0.5-0.8,0.8-1.5,1.1c-0.7,0.3-1.5,0.5-2.3,0.5c-0.9,0-1.7-0.2-2.3-0.5c-0.6-0.4-0.9-0.8-1-1.3
		c-0.1-0.5,0-1.3,0.1-2.3l0.2-0.9h3.2l-0.3,1.6c-0.1,0.5-0.1,0.8-0.1,1c0.1,0.1,0.2,0.2,0.4,0.2c0.2,0,0.4-0.1,0.6-0.3
		c0.1-0.2,0.3-0.5,0.3-0.8c0.2-0.8,0.1-1.3,0-1.5c-0.2-0.2-0.6-0.6-1.4-1.2c-0.8-0.6-1.2-1-1.5-1.2c-0.2-0.3-0.4-0.6-0.5-1.1
		c-0.1-0.5-0.1-1,0.1-1.8c0.2-1,0.5-1.8,0.8-2.2c0.4-0.5,0.8-0.8,1.5-1.1c0.6-0.3,1.4-0.4,2.2-0.4c0.9,0,1.6,0.1,2.2,0.4
		c0.6,0.3,0.9,0.7,1,1.1c0.1,0.4,0.1,1.2-0.1,2.3L124.3,18z M115.5,18h-3.2l0.2-1c0.1-0.5,0.1-0.8,0-0.9c-0.1-0.1-0.2-0.2-0.4-0.2
		c-0.2,0-0.4,0.1-0.5,0.3c-0.1,0.2-0.2,0.4-0.3,0.8c-0.1,0.4-0.1,0.8,0,1c0.1,0.2,0.3,0.5,0.8,0.8c1.4,0.9,2.2,1.7,2.5,2.3
		c0.3,0.6,0.3,1.5,0.1,2.8c-0.2,1-0.4,1.7-0.7,2.1c-0.3,0.5-0.8,0.8-1.5,1.1c-0.7,0.3-1.5,0.5-2.3,0.5c-0.9,0-1.7-0.2-2.3-0.5
		c-0.6-0.4-0.9-0.8-1-1.3c-0.1-0.5,0-1.3,0.1-2.3l0.2-0.9h3.2l-0.3,1.6c-0.1,0.5-0.1,0.8-0.1,1c0.1,0.1,0.2,0.2,0.4,0.2
		c0.2,0,0.4-0.1,0.6-0.3c0.1-0.2,0.3-0.5,0.3-0.8c0.2-0.8,0.1-1.3,0-1.5c-0.2-0.2-0.6-0.6-1.4-1.2c-0.8-0.6-1.2-1-1.5-1.2
		c-0.2-0.3-0.4-0.6-0.5-1.1c-0.1-0.5-0.1-1,0.1-1.8c0.2-1,0.5-1.8,0.8-2.2c0.4-0.5,0.8-0.8,1.5-1.1c0.6-0.3,1.4-0.4,2.2-0.4
		c0.9,0,1.6,0.1,2.2,0.4c0.6,0.3,0.9,0.7,1,1.1c0.1,0.4,0.1,1.2-0.1,2.3L115.5,18z M107.6,13.9L105,27.3h-3.5l2.6-13.4H107.6z
		 M103.5,13.9l-4.4,13.4h-5.3l0.6-13.4h3.7c-0.3,3.7-0.6,6.8-0.9,9.4c0.7-2.6,1.3-4.9,1.9-6.9l0.7-2.5H103.5z M89.1,16.2l-0.6,3
		c0.4,0,0.7-0.1,0.8-0.2c0.2-0.1,0.3-0.5,0.4-1l0.1-0.7c0.1-0.4,0.1-0.7-0.1-0.8C89.8,16.2,89.5,16.2,89.1,16.2z M86.1,13.9h2.5
		c1.6,0,2.7,0.1,3.3,0.2c0.6,0.1,1,0.5,1.2,1c0.3,0.5,0.3,1.4,0.1,2.5c-0.2,1-0.5,1.7-0.8,2.1c-0.3,0.4-0.9,0.6-1.7,0.6
		c0.7,0.2,1.1,0.4,1.3,0.7c0.2,0.3,0.3,0.5,0.3,0.8c0,0.2-0.1,0.9-0.3,2l-0.7,3.5H88l0.9-4.5c0.1-0.7,0.2-1.2,0.1-1.3
		c-0.1-0.2-0.4-0.3-0.8-0.3l-1.2,6h-3.5L86.1,13.9z M79.1,13.9h5.8l-0.5,2.7H82l-0.5,2.6h2.2l-0.5,2.5h-2.2l-0.6,2.9H83l-0.5,2.7h-6
		L79.1,13.9z M76.9,18h-3.2l0.2-1c0.1-0.5,0.1-0.8,0-0.9c-0.1-0.1-0.2-0.2-0.4-0.2c-0.2,0-0.4,0.1-0.5,0.3c-0.1,0.2-0.2,0.4-0.3,0.8
		c-0.1,0.4-0.1,0.8,0,1c0.1,0.2,0.3,0.5,0.8,0.8c1.4,0.9,2.2,1.7,2.5,2.3c0.3,0.6,0.3,1.5,0.1,2.8c-0.2,1-0.4,1.7-0.7,2.1
		c-0.3,0.5-0.8,0.8-1.5,1.1c-0.7,0.3-1.5,0.5-2.3,0.5c-0.9,0-1.7-0.2-2.3-0.5c-0.6-0.4-0.9-0.8-1-1.3c-0.1-0.5,0-1.3,0.1-2.3
		l0.2-0.9h3.2l-0.3,1.6c-0.1,0.5-0.1,0.8-0.1,1c0.1,0.1,0.2,0.2,0.4,0.2c0.2,0,0.4-0.1,0.6-0.3c0.1-0.2,0.3-0.5,0.3-0.8
		c0.2-0.8,0.1-1.3,0-1.5c-0.2-0.2-0.6-0.6-1.4-1.2c-0.8-0.6-1.2-1-1.5-1.2c-0.2-0.3-0.4-0.6-0.5-1.1c-0.1-0.5-0.1-1,0.1-1.8
		c0.2-1,0.5-1.8,0.8-2.2c0.4-0.5,0.8-0.8,1.5-1.1c0.6-0.3,1.4-0.4,2.2-0.4c0.9,0,1.6,0.1,2.2,0.4c0.6,0.3,0.9,0.7,1,1.1
		c0.1,0.4,0.1,1.2-0.1,2.3L76.9,18z M64.4,13.9l-2.1,10.7h2.1l-0.5,2.7h-5.6l2.6-13.4H64.4z M58,13.9l-2.1,10.7H58l-0.5,2.7h-5.6
		l2.6-13.4H58z M47.5,13.9h5.8l-0.5,2.7h-2.3l-0.5,2.6h2.2l-0.5,2.5h-2.2l-0.6,2.9h2.6l-0.5,2.7h-6L47.5,13.9z M40.2,21.2L39.5,25
		c0.5,0,0.8-0.1,1-0.2c0.2-0.1,0.3-0.5,0.4-1l0.2-1.3c0.1-0.6,0.1-0.9,0-1C41,21.3,40.7,21.3,40.2,21.2z M41.2,16.2l-0.6,3
		c0.1,0,0.3,0,0.3,0c0.3,0,0.6-0.1,0.7-0.3c0.1-0.2,0.3-0.7,0.4-1.4c0.1-0.4,0.1-0.7,0.1-0.9c0-0.2-0.1-0.3-0.2-0.3
		C41.7,16.2,41.5,16.2,41.2,16.2z M38.1,13.9h3.5c1.1,0,1.9,0.1,2.4,0.3c0.5,0.2,0.9,0.5,1.2,1c0.2,0.5,0.3,1.4,0,2.5
		c-0.2,0.8-0.4,1.3-0.7,1.6c-0.3,0.3-0.8,0.5-1.6,0.7c0.8,0.2,1.3,0.5,1.5,0.9c0.2,0.4,0.2,1.1,0.1,1.9l-0.2,1.2
		c-0.2,0.9-0.4,1.6-0.7,2c-0.3,0.4-0.7,0.7-1.2,0.9c-0.5,0.2-1.4,0.2-2.8,0.2h-4L38.1,13.9z"/>
	<g>
		<defs>
			<path id="SVGID_1_" d="M124.3,18H121l0.2-1c0.1-0.5,0.1-0.8,0-0.9c-0.1-0.1-0.2-0.2-0.4-0.2c-0.2,0-0.4,0.1-0.5,0.3
				c-0.1,0.2-0.2,0.4-0.3,0.8c-0.1,0.4-0.1,0.8,0,1c0.1,0.2,0.3,0.5,0.8,0.8c1.4,0.9,2.2,1.7,2.5,2.3c0.3,0.6,0.3,1.5,0.1,2.8
				c-0.2,1-0.4,1.7-0.7,2.1c-0.3,0.5-0.8,0.8-1.5,1.1c-0.7,0.3-1.5,0.5-2.3,0.5c-0.9,0-1.7-0.2-2.3-0.5c-0.6-0.4-0.9-0.8-1-1.3
				c-0.1-0.5,0-1.3,0.1-2.3l0.2-0.9h3.2l-0.3,1.6c-0.1,0.5-0.1,0.8-0.1,1c0.1,0.1,0.2,0.2,0.4,0.2c0.2,0,0.4-0.1,0.6-0.3
				c0.1-0.2,0.3-0.5,0.3-0.8c0.2-0.8,0.1-1.3,0-1.5c-0.2-0.2-0.6-0.6-1.4-1.2c-0.8-0.6-1.2-1-1.5-1.2c-0.2-0.3-0.4-0.6-0.5-1.1
				c-0.1-0.5-0.1-1,0.1-1.8c0.2-1,0.5-1.8,0.8-2.2c0.4-0.5,0.8-0.8,1.5-1.1c0.6-0.3,1.4-0.4,2.2-0.4c0.9,0,1.6,0.1,2.2,0.4
				c0.6,0.3,0.9,0.7,1,1.1c0.1,0.4,0.1,1.2-0.1,2.3L124.3,18z M115.5,18h-3.2l0.2-1c0.1-0.5,0.1-0.8,0-0.9c-0.1-0.1-0.2-0.2-0.4-0.2
				c-0.2,0-0.4,0.1-0.5,0.3c-0.1,0.2-0.2,0.4-0.3,0.8c-0.1,0.4-0.1,0.8,0,1c0.1,0.2,0.3,0.5,0.8,0.8c1.4,0.9,2.2,1.7,2.5,2.3
				c0.3,0.6,0.3,1.5,0.1,2.8c-0.2,1-0.4,1.7-0.7,2.1c-0.3,0.5-0.8,0.8-1.5,1.1c-0.7,0.3-1.5,0.5-2.3,0.5c-0.9,0-1.7-0.2-2.3-0.5
				c-0.6-0.4-0.9-0.8-1-1.3c-0.1-0.5,0-1.3,0.1-2.3l0.2-0.9h3.2l-0.3,1.6c-0.1,0.5-0.1,0.8-0.1,1c0.1,0.1,0.2,0.2,0.4,0.2
				c0.2,0,0.4-0.1,0.6-0.3c0.1-0.2,0.3-0.5,0.3-0.8c0.2-0.8,0.1-1.3,0-1.5c-0.2-0.2-0.6-0.6-1.4-1.2c-0.8-0.6-1.2-1-1.5-1.2
				c-0.2-0.3-0.4-0.6-0.5-1.1c-0.1-0.5-0.1-1,0.1-1.8c0.2-1,0.5-1.8,0.8-2.2c0.4-0.5,0.8-0.8,1.5-1.1c0.6-0.3,1.4-0.4,2.2-0.4
				c0.9,0,1.6,0.1,2.2,0.4c0.6,0.3,0.9,0.7,1,1.1c0.1,0.4,0.1,1.2-0.1,2.3L115.5,18z M107.6,13.9L105,27.3h-3.5l2.6-13.4H107.6z
				 M103.5,13.9l-4.4,13.4h-5.3l0.6-13.4h3.7c-0.3,3.7-0.6,6.8-0.9,9.4c0.7-2.6,1.3-4.9,1.9-6.9l0.7-2.5H103.5z M89.1,16.2l-0.6,3
				c0.4,0,0.7-0.1,0.8-0.2c0.2-0.1,0.3-0.5,0.4-1l0.1-0.7c0.1-0.4,0.1-0.7-0.1-0.8C89.8,16.2,89.5,16.2,89.1,16.2z M86.1,13.9h2.5
				c1.6,0,2.7,0.1,3.3,0.2c0.6,0.1,1,0.5,1.2,1c0.3,0.5,0.3,1.4,0.1,2.5c-0.2,1-0.5,1.7-0.8,2.1c-0.3,0.4-0.9,0.6-1.7,0.6
				c0.7,0.2,1.1,0.4,1.3,0.7c0.2,0.3,0.3,0.5,0.3,0.8c0,0.2-0.1,0.9-0.3,2l-0.7,3.5H88l0.9-4.5c0.1-0.7,0.2-1.2,0.1-1.3
				c-0.1-0.2-0.4-0.3-0.8-0.3l-1.2,6h-3.5L86.1,13.9z M79.1,13.9h5.8l-0.5,2.7H82l-0.5,2.6h2.2l-0.5,2.5h-2.2l-0.6,2.9H83l-0.5,2.7
				h-6L79.1,13.9z M76.9,18h-3.2l0.2-1c0.1-0.5,0.1-0.8,0-0.9c-0.1-0.1-0.2-0.2-0.4-0.2c-0.2,0-0.4,0.1-0.5,0.3
				c-0.1,0.2-0.2,0.4-0.3,0.8c-0.1,0.4-0.1,0.8,0,1c0.1,0.2,0.3,0.5,0.8,0.8c1.4,0.9,2.2,1.7,2.5,2.3c0.3,0.6,0.3,1.5,0.1,2.8
				c-0.2,1-0.4,1.7-0.7,2.1c-0.3,0.5-0.8,0.8-1.5,1.1c-0.7,0.3-1.5,0.5-2.3,0.5c-0.9,0-1.7-0.2-2.3-0.5c-0.6-0.4-0.9-0.8-1-1.3
				c-0.1-0.5,0-1.3,0.1-2.3l0.2-0.9h3.2l-0.3,1.6c-0.1,0.5-0.1,0.8-0.1,1c0.1,0.1,0.2,0.2,0.4,0.2c0.2,0,0.4-0.1,0.6-0.3
				c0.1-0.2,0.3-0.5,0.3-0.8c0.2-0.8,0.1-1.3,0-1.5c-0.2-0.2-0.6-0.6-1.4-1.2c-0.8-0.6-1.2-1-1.5-1.2c-0.2-0.3-0.4-0.6-0.5-1.1
				c-0.1-0.5-0.1-1,0.1-1.8c0.2-1,0.5-1.8,0.8-2.2c0.4-0.5,0.8-0.8,1.5-1.1c0.6-0.3,1.4-0.4,2.2-0.4c0.9,0,1.6,0.1,2.2,0.4
				c0.6,0.3,0.9,0.7,1,1.1c0.1,0.4,0.1,1.2-0.1,2.3L76.9,18z M64.4,13.9l-2.1,10.7h2.1l-0.5,2.7h-5.6l2.6-13.4H64.4z M58,13.9
				l-2.1,10.7H58l-0.5,2.7h-5.6l2.6-13.4H58z M47.5,13.9h5.8l-0.5,2.7h-2.3l-0.5,2.6h2.2l-0.5,2.5h-2.2l-0.6,2.9h2.6l-0.5,2.7h-6
				L47.5,13.9z M40.2,21.2L39.5,25c0.5,0,0.8-0.1,1-0.2c0.2-0.1,0.3-0.5,0.4-1l0.2-1.3c0.1-0.6,0.1-0.9,0-1
				C41,21.3,40.7,21.3,40.2,21.2z M41.2,16.2l-0.6,3c0.1,0,0.3,0,0.3,0c0.3,0,0.6-0.1,0.7-0.3c0.1-0.2,0.3-0.7,0.4-1.4
				c0.1-0.4,0.1-0.7,0.1-0.9c0-0.2-0.1-0.3-0.2-0.3C41.7,16.2,41.5,16.2,41.2,16.2z M38.1,13.9h3.5c1.1,0,1.9,0.1,2.4,0.3
				c0.5,0.2,0.9,0.5,1.2,1c0.2,0.5,0.3,1.4,0,2.5c-0.2,0.8-0.4,1.3-0.7,1.6c-0.3,0.3-0.8,0.5-1.6,0.7c0.8,0.2,1.3,0.5,1.5,0.9
				c0.2,0.4,0.2,1.1,0.1,1.9l-0.2,1.2c-0.2,0.9-0.4,1.6-0.7,2c-0.3,0.4-0.7,0.7-1.2,0.9c-0.5,0.2-1.4,0.2-2.8,0.2h-4L38.1,13.9z"/>
		</defs>
		<clipPath id="SVGID_2_">
			<use xlink:href="#SVGID_1_"  style="overflow:visible;"/>
		</clipPath>
		<rect x="66.2" class="st1" width="65.9" height="38.9"/>
	</g>
	<path class="st2" d="M0,21.8C0,21.8,0,21.8,0,21.8c0,10.7,56.4,13.6,64.6,13.6c-25-1.9-43.1-7.2-43.1-13.6c0,0,0,0,0,0H0z"/>
	<path class="st2" d="M161.6,19.3C161.6,19.3,161.6,19.3,161.6,19.3c0-10.7-56.4-13.6-64.6-13.6c25,1.9,43.1,7.2,43.1,13.6
		c0,0,0,0,0,0H161.6z"/>
</g>
</svg>
